<?xml version="1.0" encoding="iso-8859-1"?>
<!-- Generator: Adobe Illustrator 19.0.0, SVG Export Plug-In . SVG Version: 6.00 Build 0)  -->
<svg version="1.1" id="Layer_1" xmlns="http://www.w3.org/2000/svg" xmlns:xlink="http://www.w3.org/1999/xlink" x="0px" y="0px"
	 viewBox="0 0 512 512" style="enable-background:new 0 0 512 512;" xml:space="preserve">
<path style="fill:#4C98C6;" d="M170.161,21.915c0,0-49.695-37.311-128.609-10.365c0,0,49.968,33.526,49.968,117.812"/>
<path style="fill:#71B4E0;" d="M283.94,257.787c-10.627,10.627-17.199,25.307-17.199,41.514c0,32.423,26.29,58.702,58.713,58.702
	h3.187c20.407,0,39.508-10.794,49.371-28.662c6.416-11.619,15.809-21.358,27.157-28.202c11.348-6.844,24.639-10.773,38.849-10.773
	v35.464c0,41.399-33.384,74.992-74.71,75.337v0.031c41.326,0.345,74.71,33.938,74.71,75.337V512
	c-28.212,0-52.809-15.517-65.714-38.484c-9.916-17.648-28.902-28.254-49.142-28.254h-86.81c-59.998,0-112.003-34.168-137.634-84.114
	l-16.927-66.873c-0.031-1.202-0.042-2.414-0.042-3.626v-126.15C87.75,73.644,161.394,0,252.248,0h36.634
	c65.369,0,118.366,52.997,118.366,118.376v46.195h24.398c20.71,0,38.222,16.238,38.787,36.937
	c0.585,21.483-16.645,39.09-38.003,39.09H325.454C309.237,240.598,294.567,247.171,283.94,257.787z"/>
<g>
	<path style="fill:#4D4D4D;" d="M332.14,159.209c-4.328,0-7.837-3.509-7.837-7.837v-20.488c0-4.328,3.509-7.837,7.837-7.837
		s7.837,3.509,7.837,7.837v20.488C339.977,155.7,336.468,159.209,332.14,159.209z"/>
	<path style="fill:#4D4D4D;" d="M366.834,159.209c-4.328,0-7.837-3.509-7.837-7.837v-20.488c0-4.328,3.509-7.837,7.837-7.837
		c4.328,0,7.837,3.509,7.837,7.837v20.488C374.671,155.7,371.162,159.209,366.834,159.209z"/>
</g>
<path style="fill:#4C98C6;" d="M329.163,445.262h-86.81c-59.998,0-112.003-34.168-137.634-84.114l-16.927-66.873
	c-0.031-1.202-0.042-2.414-0.042-3.626V164.498C87.75,73.644,161.394,0,252.248,0c0,0-116.015,74.177-105.044,193.285
	C158.176,312.404,188.269,402.589,329.163,445.262z"/>
<path style="fill:#71B4E0;" d="M160.886,230.971c0,0-84.689,30.796-100.087,138.582c0,0,81.802-8.661,117.41-44.269"/>
<g>
</g>
<g>
</g>
<g>
</g>
<g>
</g>
<g>
</g>
<g>
</g>
<g>
</g>
<g>
</g>
<g>
</g>
<g>
</g>
<g>
</g>
<g>
</g>
<g>
</g>
<g>
</g>
<g>
</g>
</svg>
